<?xml version="1.0" encoding="UTF-8"?>
<!-- Simple water drop icon for PWA -->
<svg xmlns="http://www.w3.org/2000/svg" viewBox="0 0 128 128" width="512" height="512">
  <defs>
    <linearGradient id="g" x1="0" y1="1" x2="0" y2="0">
      <stop offset="0%" stop-color="#0ea5e9"/>
      <stop offset="100%" stop-color="#38bdf8"/>
    </linearGradient>
    <filter id="shadow" x="-50%" y="-50%" width="200%" height="200%">
      <feDropShadow dx="0" dy="2" stdDeviation="2" flood-color="rgba(0,0,0,0.25)"/>
    </filter>
  </defs>
  <rect x="0" y="0" width="128" height="128" rx="24" ry="24" fill="#0f172a"/>
  <g transform="translate(64,20)" filter="url(#shadow)">
    <!-- Water drop -->
    <path d="M0 0
             C -10 18, -28 34, -28 56
             C -28 80, -10 96, 0 96
             C 10 96, 28 80, 28 56
             C 28 34, 10 18, 0 0 Z" fill="url(#g)"/>
    <!-- Shine -->
    <path d="M-6 20 C -12 32, -18 44, -18 56
             C -18 70, -8 80, -2 82
             C -14 70, -10 48, -6 20 Z" fill="rgba(255,255,255,0.2)"/>
  </g>
  <!-- Waves -->
  <g transform="translate(0,84)">
    <path d="M0 10 C 16 2, 32 2, 48 10
             C 64 18, 80 18, 96 10
             C 112 2, 128 2, 144 10"
          stroke="#38bdf8" stroke-width="3" fill="none" opacity="0.6"/>
    <path d="M-8 18 C 8 10, 24 10, 40 18
             C 56 26, 72 26, 88 18
             C 104 10, 120 10, 136 18"
          stroke="#7dd3fc" stroke-width="2" fill="none" opacity="0.5"/>
  </g>
</svg>
